<svg width="148" height="27" viewBox="0 0 148 27" fill="none" xmlns="http://www.w3.org/2000/svg">
<path d="M2.25 8L4.5 4.33333H13.5L15.75 8M2.25 8V20.8333C2.25 21.3196 2.40804 21.7859 2.68934 22.1297C2.97064 22.4735 3.35218 22.6667 3.75 22.6667H14.25C14.6478 22.6667 15.0294 22.4735 15.3107 22.1297C15.592 21.7859 15.75 21.3196 15.75 20.8333V8M2.25 8H15.75M12 11.6667C12 12.6391 11.6839 13.5718 11.1213 14.2594C10.5587 14.947 9.79565 15.3333 9 15.3333C8.20435 15.3333 7.44129 14.947 6.87868 14.2594C6.31607 13.5718 6 12.6391 6 11.6667" stroke="white" stroke-width="1.6" stroke-linecap="round" stroke-linejoin="round"/>
<path d="M42.7734 6V22H39.8516L32.8906 11.9297H32.7734V22H29.3906V6H32.3594L39.2656 16.0625H39.4063V6H42.7734ZM51.4146 22.2344C50.1802 22.2344 49.1177 21.9844 48.2271 21.4844C47.3417 20.9792 46.6594 20.2656 46.1802 19.3437C45.7011 18.4167 45.4615 17.3203 45.4615 16.0547C45.4615 14.8203 45.7011 13.737 46.1802 12.8047C46.6594 11.8724 47.3339 11.1458 48.2037 10.625C49.0787 10.1042 50.1047 9.84375 51.2818 9.84375C52.0735 9.84375 52.8104 9.97135 53.4927 10.2266C54.1802 10.4766 54.7792 10.8542 55.2896 11.3594C55.8052 11.8646 56.2063 12.5 56.4927 13.2656C56.7792 14.026 56.9224 14.9167 56.9224 15.9375V16.8516H46.7896V14.7891H53.7896C53.7896 14.3099 53.6854 13.8854 53.4771 13.5156C53.2688 13.1458 52.9797 12.8568 52.6099 12.6484C52.2453 12.4349 51.8209 12.3281 51.3365 12.3281C50.8313 12.3281 50.3834 12.4453 49.9927 12.6797C49.6073 12.9089 49.3052 13.2187 49.0865 13.6094C48.8677 13.9948 48.7558 14.4245 48.7505 14.8984V16.8594C48.7505 17.4531 48.8599 17.9661 49.0787 18.3984C49.3026 18.8307 49.6177 19.1641 50.024 19.3984C50.4302 19.6328 50.912 19.75 51.4693 19.75C51.8391 19.75 52.1776 19.6979 52.4849 19.5938C52.7922 19.4896 53.0552 19.3333 53.274 19.125C53.4927 18.9167 53.6594 18.6615 53.774 18.3594L56.8521 18.5625C56.6959 19.3021 56.3755 19.9479 55.8912 20.5C55.412 21.0469 54.7922 21.474 54.0318 21.7813C53.2766 22.0833 52.4042 22.2344 51.4146 22.2344ZM62.1007 10L64.3038 14.1953L66.5616 10H69.9757L66.4991 16L70.0695 22H66.671L64.3038 17.8516L61.9757 22H58.5382L62.1007 16L58.6632 10H62.1007ZM78.7751 10V12.5H71.5485V10H78.7751ZM73.1891 7.125H76.5173V18.3125C76.5173 18.6198 76.5641 18.8594 76.6579 19.0312C76.7516 19.1979 76.8818 19.3151 77.0485 19.3828C77.2204 19.4505 77.4183 19.4844 77.6423 19.4844C77.7985 19.4844 77.9548 19.4714 78.111 19.4453C78.2673 19.4141 78.3871 19.3906 78.4704 19.375L78.9938 21.8516C78.8272 21.9036 78.5928 21.9635 78.2907 22.0313C77.9886 22.1042 77.6214 22.1484 77.1891 22.1641C76.3871 22.1953 75.6839 22.0885 75.0798 21.8437C74.4808 21.599 74.0147 21.2187 73.6813 20.7031C73.348 20.1875 73.1839 19.5365 73.1891 18.75V7.125ZM88.4944 14.1094V16.75H81.1975V14.1094H88.4944ZM100.513 10.6016C100.45 9.97135 100.182 9.48177 99.7078 9.13281C99.2339 8.78385 98.5906 8.60937 97.7781 8.60937C97.226 8.60937 96.7599 8.6875 96.3797 8.84375C95.9995 8.99479 95.7078 9.20573 95.5047 9.47656C95.3068 9.7474 95.2078 10.0547 95.2078 10.3984C95.1974 10.6849 95.2573 10.9349 95.3875 11.1484C95.5229 11.362 95.7078 11.5469 95.9422 11.7031C96.1766 11.8542 96.4474 11.987 96.7547 12.1016C97.062 12.2109 97.3901 12.3047 97.7391 12.3828L99.1766 12.7266C99.8745 12.8828 100.515 13.0911 101.098 13.3516C101.682 13.612 102.187 13.9323 102.614 14.3125C103.041 14.6927 103.372 15.1406 103.606 15.6562C103.846 16.1719 103.968 16.763 103.973 17.4297C103.968 18.4089 103.718 19.2578 103.223 19.9766C102.734 20.6901 102.026 21.2448 101.098 21.6406C100.177 22.0312 99.0646 22.2266 97.7625 22.2266C96.4708 22.2266 95.3458 22.0286 94.3875 21.6328C93.4344 21.237 92.6896 20.651 92.1531 19.875C91.6219 19.0937 91.3432 18.1276 91.3172 16.9766H94.5906C94.6271 17.513 94.7807 17.9609 95.0516 18.3203C95.3276 18.6745 95.6948 18.9427 96.1531 19.125C96.6167 19.3021 97.1401 19.3906 97.7234 19.3906C98.2964 19.3906 98.7938 19.3073 99.2156 19.1406C99.6427 18.974 99.9734 18.7422 100.208 18.4453C100.442 18.1484 100.559 17.8073 100.559 17.4219C100.559 17.0625 100.453 16.7604 100.239 16.5156C100.031 16.2708 99.7234 16.0625 99.3172 15.8906C98.9161 15.7187 98.424 15.5625 97.8406 15.4219L96.0984 14.9844C94.7495 14.6562 93.6844 14.1432 92.9031 13.4453C92.1219 12.7474 91.7339 11.8073 91.7391 10.625C91.7339 9.65625 91.9917 8.8099 92.5125 8.08594C93.0385 7.36198 93.7599 6.79687 94.6766 6.39062C95.5932 5.98437 96.6349 5.78125 97.8016 5.78125C98.9891 5.78125 100.026 5.98437 100.911 6.39062C101.802 6.79687 102.494 7.36198 102.989 8.08594C103.484 8.8099 103.739 9.64844 103.755 10.6016H100.513ZM109.954 15.0625V22H106.626V6H109.861V12.1172H110.001C110.272 11.4089 110.71 10.8542 111.314 10.4531C111.918 10.0469 112.676 9.84375 113.587 9.84375C114.421 9.84375 115.147 10.026 115.767 10.3906C116.392 10.75 116.876 11.2682 117.22 11.9453C117.569 12.6172 117.741 13.4219 117.736 14.3594V22H114.408V14.9531C114.413 14.2135 114.225 13.638 113.845 13.2266C113.47 12.8151 112.944 12.6094 112.267 12.6094C111.814 12.6094 111.413 12.7057 111.064 12.8984C110.72 13.0911 110.449 13.3724 110.251 13.7422C110.059 14.1068 109.96 14.5469 109.954 15.0625ZM126.217 22.2344C125.003 22.2344 123.954 21.9766 123.068 21.4609C122.188 20.9401 121.508 20.2161 121.029 19.2891C120.55 18.3568 120.31 17.276 120.31 16.0469C120.31 14.8073 120.55 13.724 121.029 12.7969C121.508 11.8646 122.188 11.1406 123.068 10.625C123.954 10.1042 125.003 9.84375 126.217 9.84375C127.43 9.84375 128.477 10.1042 129.357 10.625C130.243 11.1406 130.925 11.8646 131.404 12.7969C131.883 13.724 132.123 14.8073 132.123 16.0469C132.123 17.276 131.883 18.3568 131.404 19.2891C130.925 20.2161 130.243 20.9401 129.357 21.4609C128.477 21.9766 127.43 22.2344 126.217 22.2344ZM126.232 19.6562C126.784 19.6562 127.245 19.5 127.615 19.1875C127.985 18.8698 128.264 18.4375 128.451 17.8906C128.644 17.3437 128.74 16.7214 128.74 16.0234C128.74 15.3255 128.644 14.7031 128.451 14.1562C128.264 13.6094 127.985 13.1771 127.615 12.8594C127.245 12.5417 126.784 12.3828 126.232 12.3828C125.675 12.3828 125.206 12.5417 124.826 12.8594C124.451 13.1771 124.167 13.6094 123.975 14.1562C123.787 14.7031 123.693 15.3255 123.693 16.0234C123.693 16.7214 123.787 17.3437 123.975 17.8906C124.167 18.4375 124.451 18.8698 124.826 19.1875C125.206 19.5 125.675 19.6562 126.232 19.6562ZM134.727 26.5V10H138.008V12.0156H138.157C138.303 11.6927 138.513 11.3646 138.79 11.0312C139.071 10.6927 139.435 10.4115 139.883 10.1875C140.336 9.95833 140.899 9.84375 141.571 9.84375C142.446 9.84375 143.253 10.0729 143.993 10.5313C144.732 10.9844 145.323 11.6693 145.766 12.5859C146.209 13.4974 146.43 14.6406 146.43 16.0156C146.43 17.3542 146.214 18.4844 145.782 19.4062C145.355 20.3229 144.771 21.0182 144.032 21.4922C143.297 21.9609 142.474 22.1953 141.563 22.1953C140.917 22.1953 140.368 22.0885 139.915 21.875C139.467 21.6615 139.099 21.3932 138.813 21.0703C138.527 20.7422 138.308 20.4115 138.157 20.0781H138.055V26.5H134.727ZM137.985 16C137.985 16.7135 138.084 17.3359 138.282 17.8672C138.48 18.3984 138.766 18.8125 139.141 19.1094C139.516 19.401 139.972 19.5469 140.508 19.5469C141.05 19.5469 141.508 19.3984 141.883 19.1016C142.258 18.7995 142.542 18.3828 142.735 17.8516C142.933 17.3151 143.032 16.6979 143.032 16C143.032 15.3073 142.935 14.6979 142.743 14.1719C142.55 13.6458 142.266 13.2344 141.891 12.9375C141.516 12.6406 141.055 12.4922 140.508 12.4922C139.967 12.4922 139.508 12.6354 139.133 12.9219C138.763 13.2083 138.48 13.6146 138.282 14.1406C138.084 14.6667 137.985 15.2865 137.985 16Z" fill="white"/>
</svg>
