<svg width="147" height="33" viewBox="0 0 147 33" fill="none" xmlns="http://www.w3.org/2000/svg">
<g filter="url(#filter0_d_2_19)">
<rect width="18" height="22" transform="translate(4 2.5)" fill="#EAF0FF" fill-opacity="0.0588235"/>
<path d="M6.25 8L8.5 4.33333H17.5L19.75 8M6.25 8V20.8333C6.25 21.3196 6.40804 21.7859 6.68934 22.1297C6.97064 22.4735 7.35218 22.6667 7.75 22.6667H18.25C18.6478 22.6667 19.0294 22.4735 19.3107 22.1297C19.592 21.7859 19.75 21.3196 19.75 20.8333V8M6.25 8H19.75M16 11.6667C16 12.6391 15.6839 13.5718 15.1213 14.2594C14.5587 14.947 13.7956 15.3333 13 15.3333C12.2044 15.3333 11.4413 14.947 10.8787 14.2594C10.3161 13.5718 10 12.6391 10 11.6667" stroke="#1E1E1E" stroke-width="1.6" stroke-linecap="round" stroke-linejoin="round"/>
</g>
<path d="M46.7734 6V22H43.8516L36.8906 11.9297H36.7734V22H33.3906V6H36.3594L43.2656 16.0625H43.4063V6H46.7734ZM54.7546 22.2344C53.5202 22.2344 52.4577 21.9844 51.5671 21.4844C50.6817 20.9792 49.9994 20.2656 49.5202 19.3437C49.0411 18.4167 48.8015 17.3203 48.8015 16.0547C48.8015 14.8203 49.0411 13.737 49.5202 12.8047C49.9994 11.8724 50.6739 11.1458 51.5437 10.625C52.4187 10.1042 53.4447 9.84375 54.6218 9.84375C55.4135 9.84375 56.1504 9.97135 56.8327 10.2266C57.5202 10.4766 58.1192 10.8542 58.6296 11.3594C59.1452 11.8646 59.5463 12.5 59.8327 13.2656C60.1192 14.026 60.2624 14.9167 60.2624 15.9375V16.8516H50.1296V14.7891H57.1296C57.1296 14.3099 57.0254 13.8854 56.8171 13.5156C56.6088 13.1458 56.3197 12.8568 55.9499 12.6484C55.5853 12.4349 55.1609 12.3281 54.6765 12.3281C54.1713 12.3281 53.7234 12.4453 53.3327 12.6797C52.9473 12.9089 52.6452 13.2187 52.4265 13.6094C52.2077 13.9948 52.0958 14.4245 52.0905 14.8984V16.8594C52.0905 17.4531 52.1999 17.9661 52.4187 18.3984C52.6426 18.8307 52.9577 19.1641 53.364 19.3984C53.7702 19.6328 54.252 19.75 54.8093 19.75C55.1791 19.75 55.5176 19.6979 55.8249 19.5938C56.1322 19.4896 56.3952 19.3333 56.614 19.125C56.8327 18.9167 56.9994 18.6615 57.114 18.3594L60.1921 18.5625C60.0359 19.3021 59.7155 19.9479 59.2312 20.5C58.752 21.0469 58.1322 21.474 57.3718 21.7813C56.6166 22.0833 55.7442 22.2344 54.7546 22.2344ZM64.7807 10L66.9838 14.1953L69.2416 10H72.6557L69.1791 16L72.7495 22H69.351L66.9838 17.8516L64.6557 22H61.2182L64.7807 16L61.3432 10H64.7807ZM80.7951 10V12.5H73.5685V10H80.7951ZM75.2091 7.125H78.5373V18.3125C78.5373 18.6198 78.5841 18.8594 78.6779 19.0312C78.7716 19.1979 78.9018 19.3151 79.0685 19.3828C79.2404 19.4505 79.4383 19.4844 79.6623 19.4844C79.8185 19.4844 79.9748 19.4714 80.131 19.4453C80.2873 19.4141 80.4071 19.3906 80.4904 19.375L81.0138 21.8516C80.8472 21.9036 80.6128 21.9635 80.3107 22.0313C80.0086 22.1042 79.6414 22.1484 79.2091 22.1641C78.4071 22.1953 77.7039 22.0885 77.0998 21.8437C76.5008 21.599 76.0347 21.2187 75.7013 20.7031C75.368 20.1875 75.2039 19.5365 75.2091 18.75V7.125ZM89.8544 14.1094V16.75H82.5575V14.1094H89.8544ZM101.213 10.6016C101.15 9.97135 100.882 9.48177 100.408 9.13281C99.9339 8.78385 99.2906 8.60937 98.4781 8.60937C97.926 8.60937 97.4599 8.6875 97.0797 8.84375C96.6995 8.99479 96.4078 9.20573 96.2047 9.47656C96.0068 9.7474 95.9078 10.0547 95.9078 10.3984C95.8974 10.6849 95.9573 10.9349 96.0875 11.1484C96.2229 11.362 96.4078 11.5469 96.6422 11.7031C96.8766 11.8542 97.1474 11.987 97.4547 12.1016C97.762 12.2109 98.0901 12.3047 98.4391 12.3828L99.8766 12.7266C100.574 12.8828 101.215 13.0911 101.798 13.3516C102.382 13.612 102.887 13.9323 103.314 14.3125C103.741 14.6927 104.072 15.1406 104.306 15.6562C104.546 16.1719 104.668 16.763 104.673 17.4297C104.668 18.4089 104.418 19.2578 103.923 19.9766C103.434 20.6901 102.726 21.2448 101.798 21.6406C100.877 22.0312 99.7646 22.2266 98.4625 22.2266C97.1708 22.2266 96.0458 22.0286 95.0875 21.6328C94.1344 21.237 93.3896 20.651 92.8531 19.875C92.3219 19.0937 92.0432 18.1276 92.0172 16.9766H95.2906C95.3271 17.513 95.4807 17.9609 95.7516 18.3203C96.0276 18.6745 96.3948 18.9427 96.8531 19.125C97.3167 19.3021 97.8401 19.3906 98.4234 19.3906C98.9964 19.3906 99.4938 19.3073 99.9156 19.1406C100.343 18.974 100.673 18.7422 100.908 18.4453C101.142 18.1484 101.259 17.8073 101.259 17.4219C101.259 17.0625 101.153 16.7604 100.939 16.5156C100.731 16.2708 100.423 16.0625 100.017 15.8906C99.6161 15.7187 99.124 15.5625 98.5406 15.4219L96.7984 14.9844C95.4495 14.6562 94.3844 14.1432 93.6031 13.4453C92.8219 12.7474 92.4339 11.8073 92.4391 10.625C92.4339 9.65625 92.6917 8.8099 93.2125 8.08594C93.7385 7.36198 94.4599 6.79687 95.3766 6.39062C96.2932 5.98437 97.3349 5.78125 98.5016 5.78125C99.6891 5.78125 100.726 5.98437 101.611 6.39062C102.502 6.79687 103.194 7.36198 103.689 8.08594C104.184 8.8099 104.439 9.64844 104.455 10.6016H101.213ZM109.994 15.0625V22H106.666V6H109.901V12.1172H110.041C110.312 11.4089 110.75 10.8542 111.354 10.4531C111.958 10.0469 112.716 9.84375 113.627 9.84375C114.461 9.84375 115.187 10.026 115.807 10.3906C116.432 10.75 116.916 11.2682 117.26 11.9453C117.609 12.6172 117.781 13.4219 117.776 14.3594V22H114.448V14.9531C114.453 14.2135 114.265 13.638 113.885 13.2266C113.51 12.8151 112.984 12.6094 112.307 12.6094C111.854 12.6094 111.453 12.7057 111.104 12.8984C110.76 13.0911 110.489 13.3724 110.291 13.7422C110.099 14.1068 110 14.5469 109.994 15.0625ZM125.597 22.2344C124.383 22.2344 123.334 21.9766 122.448 21.4609C121.568 20.9401 120.888 20.2161 120.409 19.2891C119.93 18.3568 119.69 17.276 119.69 16.0469C119.69 14.8073 119.93 13.724 120.409 12.7969C120.888 11.8646 121.568 11.1406 122.448 10.625C123.334 10.1042 124.383 9.84375 125.597 9.84375C126.81 9.84375 127.857 10.1042 128.737 10.625C129.623 11.1406 130.305 11.8646 130.784 12.7969C131.263 13.724 131.503 14.8073 131.503 16.0469C131.503 17.276 131.263 18.3568 130.784 19.2891C130.305 20.2161 129.623 20.9401 128.737 21.4609C127.857 21.9766 126.81 22.2344 125.597 22.2344ZM125.612 19.6562C126.164 19.6562 126.625 19.5 126.995 19.1875C127.365 18.8698 127.644 18.4375 127.831 17.8906C128.024 17.3437 128.12 16.7214 128.12 16.0234C128.12 15.3255 128.024 14.7031 127.831 14.1562C127.644 13.6094 127.365 13.1771 126.995 12.8594C126.625 12.5417 126.164 12.3828 125.612 12.3828C125.055 12.3828 124.586 12.5417 124.206 12.8594C123.831 13.1771 123.547 13.6094 123.355 14.1562C123.167 14.7031 123.073 15.3255 123.073 16.0234C123.073 16.7214 123.167 17.3437 123.355 17.8906C123.547 18.4375 123.831 18.8698 124.206 19.1875C124.586 19.5 125.055 19.6562 125.612 19.6562ZM133.447 26.5V10H136.728V12.0156H136.877C137.023 11.6927 137.233 11.3646 137.51 11.0312C137.791 10.6927 138.155 10.4115 138.603 10.1875C139.056 9.95833 139.619 9.84375 140.291 9.84375C141.166 9.84375 141.973 10.0729 142.713 10.5313C143.452 10.9844 144.043 11.6693 144.486 12.5859C144.929 13.4974 145.15 14.6406 145.15 16.0156C145.15 17.3542 144.934 18.4844 144.502 19.4062C144.075 20.3229 143.491 21.0182 142.752 21.4922C142.017 21.9609 141.194 22.1953 140.283 22.1953C139.637 22.1953 139.088 22.0885 138.635 21.875C138.187 21.6615 137.819 21.3932 137.533 21.0703C137.247 20.7422 137.028 20.4115 136.877 20.0781H136.775V26.5H133.447ZM136.705 16C136.705 16.7135 136.804 17.3359 137.002 17.8672C137.2 18.3984 137.486 18.8125 137.861 19.1094C138.236 19.401 138.692 19.5469 139.228 19.5469C139.77 19.5469 140.228 19.3984 140.603 19.1016C140.978 18.7995 141.262 18.3828 141.455 17.8516C141.653 17.3151 141.752 16.6979 141.752 16C141.752 15.3073 141.655 14.6979 141.463 14.1719C141.27 13.6458 140.986 13.2344 140.611 12.9375C140.236 12.6406 139.775 12.4922 139.228 12.4922C138.687 12.4922 138.228 12.6354 137.853 12.9219C137.483 13.2083 137.2 13.6146 137.002 14.1406C136.804 14.6667 136.705 15.2865 136.705 16Z" fill="#D6DCF7"/>
<defs>
<filter id="filter0_d_2_19" x="0" y="2.5" width="26" height="30" filterUnits="userSpaceOnUse" color-interpolation-filters="sRGB">
<feFlood flood-opacity="0" result="BackgroundImageFix"/>
<feColorMatrix in="SourceAlpha" type="matrix" values="0 0 0 0 0 0 0 0 0 0 0 0 0 0 0 0 0 0 127 0" result="hardAlpha"/>
<feOffset dy="4"/>
<feGaussianBlur stdDeviation="2"/>
<feComposite in2="hardAlpha" operator="out"/>
<feColorMatrix type="matrix" values="0 0 0 0 0 0 0 0 0 0 0 0 0 0 0 0 0 0 0.25 0"/>
<feBlend mode="normal" in2="BackgroundImageFix" result="effect1_dropShadow_2_19"/>
<feBlend mode="normal" in="SourceGraphic" in2="effect1_dropShadow_2_19" result="shape"/>
</filter>
</defs>
</svg>
